<svg width="123" height="41" viewBox="0 0 123 41" fill="none" xmlns="http://www.w3.org/2000/svg">
<path d="M34.1422 5.85781C30.3647 2.08031 25.3422 0 20 0C14.6578 0 9.63531 2.08031 5.85781 5.85781C2.08031 9.63531 0 14.6578 0 20C0 25.3422 2.08039 30.3646 5.85781 34.1422C9.63523 37.9198 14.6578 40 20 40C25.3422 40 30.3647 37.9197 34.1422 34.1422C37.9197 30.3647 40 25.3422 40 20C40 14.6578 37.9196 9.63539 34.1422 5.85781Z" fill="#56CCF2"/>
<g clip-path="url(#clip0)">
<path d="M20.5714 8V33.1429" stroke="#363F5F" stroke-width="2" stroke-linecap="round" stroke-linejoin="round"/>
<path d="M26.2857 12.5714H17.7143C16.6534 12.5714 15.636 12.9929 14.8859 13.743C14.1357 14.4931 13.7143 15.5106 13.7143 16.5714C13.7143 17.6323 14.1357 18.6497 14.8859 19.3999C15.636 20.15 16.6534 20.5714 17.7143 20.5714H23.4286C24.4894 20.5714 25.5069 20.9929 26.257 21.743C27.0072 22.4932 27.4286 23.5106 27.4286 24.5714C27.4286 25.6323 27.0072 26.6497 26.257 27.3999C25.5069 28.15 24.4894 28.5714 23.4286 28.5714H13.7143" stroke="#363F5F" stroke-width="2" stroke-linecap="round" stroke-linejoin="round"/>
</g>
<path d="M56.4401 17.008C57.5281 17.008 58.4028 17.344 59.0641 18.016C59.7361 18.6773 60.0721 19.6053 60.0721 20.8V26H57.8321V21.104C57.8321 20.4107 57.6561 19.8827 57.3041 19.52C56.9521 19.1467 56.4721 18.96 55.8641 18.96C55.2561 18.96 54.7708 19.1467 54.4081 19.52C54.0561 19.8827 53.8801 20.4107 53.8801 21.104V26H51.6401V21.104C51.6401 20.4107 51.4641 19.8827 51.1121 19.52C50.7601 19.1467 50.2801 18.96 49.6721 18.96C49.0535 18.96 48.5628 19.1467 48.2001 19.52C47.8481 19.8827 47.6721 20.4107 47.6721 21.104V26H45.4321V17.136H47.6721V18.208C47.9601 17.8347 48.3281 17.5413 48.7761 17.328C49.2348 17.1147 49.7361 17.008 50.2801 17.008C50.9735 17.008 51.5921 17.1573 52.1361 17.456C52.6801 17.744 53.1015 18.16 53.4001 18.704C53.6881 18.192 54.1041 17.7813 54.6481 17.472C55.2028 17.1627 55.8001 17.008 56.4401 17.008ZM70.6778 17.136L65.1898 30.192H62.8058L64.7258 25.776L61.1738 17.136H63.6858L65.9738 23.328L68.2938 17.136H70.6778ZM86.8133 14.832L83.6933 26H81.0533L78.9573 18.048L76.7653 26L74.1413 26.016L71.1333 14.832H73.5333L75.5013 23.504L77.7733 14.832H80.2693L82.4133 23.456L84.3973 14.832H86.8133ZM87.6999 21.536C87.6999 20.64 87.8759 19.8453 88.2279 19.152C88.5905 18.4587 89.0759 17.9253 89.6839 17.552C90.3025 17.1787 90.9905 16.992 91.7479 16.992C92.4092 16.992 92.9852 17.1253 93.4759 17.392C93.9772 17.6587 94.3772 17.9947 94.6759 18.4V17.136H96.9319V26H94.6759V24.704C94.3879 25.12 93.9879 25.4667 93.4759 25.744C92.9745 26.0107 92.3932 26.144 91.7319 26.144C90.9852 26.144 90.3025 25.952 89.6839 25.568C89.0759 25.184 88.5905 24.6453 88.2279 23.952C87.8759 23.248 87.6999 22.4427 87.6999 21.536ZM94.6759 21.568C94.6759 21.024 94.5692 20.56 94.3559 20.176C94.1425 19.7813 93.8545 19.4827 93.4919 19.28C93.1292 19.0667 92.7399 18.96 92.3239 18.96C91.9079 18.96 91.5239 19.0613 91.1719 19.264C90.8199 19.4667 90.5319 19.7653 90.3079 20.16C90.0945 20.544 89.9879 21.0027 89.9879 21.536C89.9879 22.0693 90.0945 22.5387 90.3079 22.944C90.5319 23.3387 90.8199 23.6427 91.1719 23.856C91.5345 24.0693 91.9185 24.176 92.3239 24.176C92.7399 24.176 93.1292 24.0747 93.4919 23.872C93.8545 23.6587 94.1425 23.36 94.3559 22.976C94.5692 22.5813 94.6759 22.112 94.6759 21.568ZM101.36 14.16V26H99.1196V14.16H101.36ZM105.813 14.16V26H103.573V14.16H105.813ZM116.266 21.376C116.266 21.696 116.245 21.984 116.202 22.24H109.722C109.775 22.88 109.999 23.3813 110.394 23.744C110.789 24.1067 111.274 24.288 111.85 24.288C112.682 24.288 113.274 23.9307 113.626 23.216H116.042C115.786 24.0693 115.295 24.7733 114.57 25.328C113.845 25.872 112.954 26.144 111.898 26.144C111.045 26.144 110.277 25.9573 109.594 25.584C108.922 25.2 108.394 24.6613 108.01 23.968C107.637 23.2747 107.45 22.4747 107.45 21.568C107.45 20.6507 107.637 19.8453 108.01 19.152C108.383 18.4587 108.906 17.9253 109.578 17.552C110.25 17.1787 111.023 16.992 111.898 16.992C112.741 16.992 113.493 17.1733 114.154 17.536C114.826 17.8987 115.343 18.416 115.706 19.088C116.079 19.7493 116.266 20.512 116.266 21.376ZM113.946 20.736C113.935 20.16 113.727 19.7013 113.322 19.36C112.917 19.008 112.421 18.832 111.834 18.832C111.279 18.832 110.81 19.0027 110.426 19.344C110.053 19.6747 109.823 20.1387 109.738 20.736H113.946ZM120.509 18.976V23.264C120.509 23.5627 120.578 23.7813 120.717 23.92C120.866 24.048 121.112 24.112 121.453 24.112H122.493V26H121.085C119.197 26 118.253 25.0827 118.253 23.248V18.976H117.197V17.136H118.253V14.944H120.509V17.136H122.493V18.976H120.509Z" fill="#E5E5E5"/>
<defs>
<clipPath id="clip0">
<rect width="27.4286" height="27.4286" fill="white" transform="translate(6.85715 6.85714)"/>
</clipPath>
</defs>
</svg>
